<svg id="Capa_1" enable-background="new 0 0 512 512" height="50px" viewBox="0 0 512 512" width="50px" xmlns="http://www.w3.org/2000/svg"><g><g id="Page-1_62_"><g id="_x30_63---Mobile-POS-Attachment"><path id="Shape_206_" d="m375.467 77.653v-43.52c0-18.851-15.282-34.133-34.134-34.133h-170.666c-18.851 0-34.133 15.282-34.133 34.133v43.52c-19.852 4.083-34.108 21.546-34.133 41.813v273.067c.028 23.552 19.114 42.638 42.667 42.667h17.067v51.2c0 14.138 11.462 25.6 25.6 25.6h136.533c14.138 0 25.6-11.461 25.6-25.6v-51.2h17.067c23.552-.028 42.638-19.114 42.667-42.667v-273.066c-.028-20.268-14.283-37.731-34.135-41.814zm-70.904-60.586-10.94 11.674c-3.226 3.441-7.733 5.393-12.45 5.393h-50.347c-4.717 0-9.224-1.952-12.45-5.393l-10.94-11.674zm-150.963 17.066c0-9.426 7.641-17.067 17.067-17.067h13.372l21.879 23.339c6.461 6.876 15.473 10.782 24.909 10.795h50.347c9.433-.011 18.444-3.917 24.9-10.795l21.888-23.339h13.372c9.426 0 17.067 7.641 17.067 17.067v136.533c0 4.713-3.821 8.533-8.533 8.533h-187.735c-4.713 0-8.533-3.821-8.533-8.533zm25.6 452.267v-51.2h76.8v59.733h-68.267c-4.712 0-8.533-3.82-8.533-8.533zm110.933-51.2v59.733h-17.067v-59.733zm42.667 51.2c0 4.713-3.82 8.533-8.533 8.533h-17.067v-59.733h25.6zm59.733-93.867c0 14.138-11.462 25.6-25.6 25.6h-221.866c-14.138 0-25.6-11.462-25.6-25.6v-273.066c.045-10.81 6.875-20.427 17.067-24.03v75.23c0 14.139 11.462 25.6 25.6 25.6h187.733c14.138 0 25.6-11.462 25.6-25.6v-75.23c10.192 3.603 17.022 13.22 17.067 24.03v273.066z"/><path id="Shape_205_" d="m187.733 213.333h-34.133c-9.426 0-17.067 7.641-17.067 17.067v17.067c0 9.426 7.641 17.067 17.067 17.067h34.133c9.426 0 17.067-7.641 17.067-17.067v-17.067c0-9.426-7.641-17.067-17.067-17.067zm-34.133 34.134v-17.067h34.133v17.067z"/><path id="Shape_204_" d="m187.733 281.6h-34.133c-9.426 0-17.067 7.641-17.067 17.067v17.067c0 9.426 7.641 17.067 17.067 17.067h34.133c9.426 0 17.067-7.641 17.067-17.067v-17.067c0-9.426-7.641-17.067-17.067-17.067zm-34.133 34.133v-17.067h34.133v17.067z"/><path id="Shape_203_" d="m273.067 213.333h-34.133c-9.426 0-17.067 7.641-17.067 17.067v17.067c0 9.426 7.641 17.067 17.067 17.067h34.133c9.426 0 17.067-7.641 17.067-17.067v-17.067c-.001-9.426-7.642-17.067-17.067-17.067zm-34.134 34.134v-17.067h34.133v17.067z"/><path id="Shape_202_" d="m273.067 281.6h-34.133c-9.426 0-17.067 7.641-17.067 17.067v17.067c0 9.426 7.641 17.067 17.067 17.067h34.133c9.426 0 17.067-7.641 17.067-17.067v-17.067c-.001-9.426-7.642-17.067-17.067-17.067zm-34.134 34.133v-17.067h34.133v17.067z"/><path id="Shape_201_" d="m358.4 213.333h-34.133c-9.426 0-17.067 7.641-17.067 17.067v17.067c0 9.426 7.641 17.067 17.067 17.067h34.133c9.426 0 17.067-7.641 17.067-17.067v-17.067c0-9.426-7.641-17.067-17.067-17.067zm-34.133 34.134v-17.067h34.133v17.067z"/><path id="Shape_200_" d="m358.4 281.6h-34.133c-9.426 0-17.067 7.641-17.067 17.067v17.067c0 9.426 7.641 17.067 17.067 17.067h34.133c9.426 0 17.067-7.641 17.067-17.067v-17.067c0-9.426-7.641-17.067-17.067-17.067zm-34.133 34.133v-17.067h34.133v17.067z"/><path id="Shape_199_" d="m187.733 349.867h-34.133c-9.426 0-17.067 7.641-17.067 17.067v17.066c0 9.426 7.641 17.067 17.067 17.067h34.133c9.426 0 17.067-7.641 17.067-17.067v-17.067c0-9.425-7.641-17.066-17.067-17.066zm-34.133 34.133v-17.067h34.133v17.067z"/><path id="Shape_198_" d="m273.067 349.867h-34.133c-9.426 0-17.067 7.641-17.067 17.067v17.066c0 9.426 7.641 17.067 17.067 17.067h34.133c9.426 0 17.067-7.641 17.067-17.067v-17.067c-.001-9.425-7.642-17.066-17.067-17.066zm-34.134 34.133v-17.067h34.133v17.067z"/><path id="Shape_197_" d="m358.4 349.867h-34.133c-9.426 0-17.067 7.641-17.067 17.067v17.066c0 9.426 7.641 17.067 17.067 17.067h34.133c9.426 0 17.067-7.641 17.067-17.067v-17.067c0-9.425-7.641-17.066-17.067-17.066zm-34.133 34.133v-17.067h34.133v17.067z"/></g></g></g></svg>