<svg width="180" height="60" viewBox="0 0 130 40" fill="none" xmlns="http://www.w3.org/2000/svg">
<path d="M39.9739 19.1458C39.9739 20.6772 42.2426 20.6429 42.2426 19.1458V10.4587H45.0971C46.6271 10.4587 46.6271 8.25659 45.0971 8.25659H36.9665C35.4707 8.25659 35.4707 10.4587 36.9665 10.4587H39.9739V19.1458Z" fill="#FFFFFF"/>
<path d="M55.9792 15.671C55.9792 19.2673 50.1173 19.0614 50.1173 15.671V9.44225C50.1173 7.82366 47.8644 7.89232 47.8644 9.44225V15.671C47.8644 22.1058 58.2295 22.1058 58.2295 15.671V9.44225C58.2295 7.78934 55.9765 7.9108 55.9765 9.44225V15.671H55.9792Z" fill="#FFFFFF"/>
<path d="M62.9068 15.98H65.6056L68.2014 19.6977C69.2329 21.0047 71.0216 19.732 70.1272 18.4065L67.84 15.6182C71.4859 14.1554 70.5915 8.3042 66.2255 8.3042H61.6511C61.0839 8.3042 60.6196 8.75043 60.6196 9.35509V19.1274C60.6196 20.643 62.9068 20.5902 62.9068 19.093V15.98ZM62.9068 10.3901H66.2255C68.5971 10.3901 68.46 14.0049 66.2255 14.0049H62.9068V10.3901Z" fill="#FFFFFF"/>
<path d="M79.9779 19.8191C80.6665 20.9202 82.8667 19.8878 81.8352 18.4593L77.8121 13.5903C78.9121 12.3863 80.0966 11.3195 81.1123 10.1155C81.5924 9.65078 81.5924 9.04876 81.1123 8.58404C80.6823 8.15365 80.0808 8.01635 79.4793 8.58404L74.5118 13.7118V9.33921C74.5118 7.82624 72.243 7.87641 72.243 9.33921V19.1643C72.243 20.6086 74.5118 20.5928 74.5118 19.1643V16.7562L76.1448 14.9501L79.9779 19.8191Z" fill="#FFFFFF"/>
<path d="M88.557 16.273C89.1242 17.0308 89.8971 17.0308 90.5171 16.273L93.3715 12.6609V19.027C93.3715 19.7821 93.8543 20.2152 94.4716 20.2152C95.023 20.2152 95.5031 19.7848 95.5031 19.027V9.3392C95.5031 8.151 94.1102 7.8764 93.543 8.58139L89.6228 13.8808L85.8398 8.7715C85.5469 8.44409 85.2541 8.151 84.7555 8.151C84.4811 8.151 83.724 8.44409 83.724 9.3392V19.027C83.724 19.7821 84.2068 20.2152 84.7555 20.2152C85.3754 20.2152 85.9928 19.7848 85.9928 19.027V12.6609L88.557 16.273Z" fill="#FFFFFF"/>
<path d="M105.404 20.2126C107.09 20.2126 106.968 17.9576 105.404 17.9576H100.159V15.3753H104.491C106.021 15.3753 106.021 13.1204 104.491 13.1204H100.159V10.5407H105.111C106.657 10.5407 106.694 8.3042 105.111 8.3042H98.9379C98.3364 8.3042 97.8721 8.75307 97.8721 9.37094V19.1432C97.8721 19.7452 98.3364 20.2099 98.9379 20.2099H105.404V20.2126Z" fill="#FFFFFF"/>
<path d="M108.483 19.027C108.483 19.7821 109.031 20.2152 109.651 20.2152C110.271 20.2152 110.735 19.7848 110.735 19.027V12.3836L116.426 19.6105C116.924 20.0752 117.217 20.2125 117.819 20.2125C118.265 20.0752 118.729 19.7821 118.729 19.0243V9.3392C118.729 8.7715 118.127 8.151 117.51 8.151C116.924 8.151 116.426 8.7715 116.426 9.3392V16.0169L110.735 8.89296C110.271 8.44673 110.134 8.29094 109.514 8.29094C108.62 8.29094 108.483 8.89296 108.483 9.51347V19.027Z" fill="#FFFFFF"/>
<path d="M39.9739 38.8646C39.9739 40.396 42.2426 40.3617 42.2426 38.8646V30.1749H45.0971C46.6271 30.1749 46.6271 27.9728 45.0971 27.9728H36.9665C35.4707 27.9728 35.4707 30.1749 36.9665 30.1749H39.9739V38.8646Z" fill="#FFFFFF"/>
<path d="M50.1701 35.6987H52.8689L55.4648 39.4165C56.4963 40.7235 58.2849 39.4508 57.3906 38.1253L55.1034 35.3396C58.7492 33.8768 57.8549 28.0256 53.4862 28.0256H48.9117C48.3446 28.0256 47.8802 28.4719 47.8802 29.0765V38.8488C47.8802 40.3644 50.1675 40.3116 50.1675 38.8145V35.6987H50.1701ZM50.1701 30.1063H53.4888C55.8605 30.1063 55.7233 33.7211 53.4888 33.7211H50.1701V30.1063Z" fill="#FFFFFF"/>
<path d="M60.7937 39.3478L61.5324 37.8349H67.877L68.6341 39.3478C69.2514 40.6892 71.3329 39.6225 70.6285 38.2811L65.7797 28.6277C65.3497 27.6824 64.1124 27.7167 63.6481 28.6277L58.7149 38.2811C58.3719 39.0046 58.7149 39.6225 59.2663 39.934C59.8809 40.0528 60.5194 39.9314 60.7937 39.3478ZM62.5982 35.5615L64.7113 31.313L66.6556 35.5615H62.5982Z" fill="#FFFFFF"/>
<path d="M72.2087 38.7458C72.2087 39.5009 72.7601 39.934 73.3774 39.934C73.9974 39.934 74.4617 39.5036 74.4617 38.7458V32.1024L80.152 39.3293C80.6506 39.794 80.9435 39.9313 81.545 39.9313C81.9934 39.794 82.4551 39.5009 82.4551 38.7431V29.0554C82.4551 28.4877 81.8536 27.8672 81.2363 27.8672C80.6506 27.8672 80.152 28.4877 80.152 29.0554V35.733L74.4617 28.6091C73.9974 28.1603 73.8602 28.0071 73.2402 28.0071C72.3459 28.0071 72.2087 28.6091 72.2087 29.2297V38.7458Z" fill="#FFFFFF"/>
<path d="M92.5115 39.9314C94.1973 39.9314 94.0258 37.7451 92.6487 37.7451H87.0612L92.9231 30.1222C93.8517 29.1241 93.4718 27.8857 92.1659 27.8857H85.2383C83.8638 27.8857 83.7425 30.0007 85.2383 30.0007H90.3087L84.1883 38.1386C83.5684 38.8779 83.9984 39.9288 85.0826 39.9288H92.5115V39.9314Z" fill="#FFFFFF"/>
<path d="M95.4503 38.8831C95.4503 40.3459 97.7191 40.3115 97.7191 38.8831V29.058C97.7191 27.5952 95.4503 27.648 95.4503 29.058V38.8831Z" fill="#FFFFFF"/>
<path d="M103.497 38.8646C103.497 40.396 105.765 40.3617 105.765 38.8646V30.1749H108.62C110.15 30.1749 110.15 27.9728 108.62 27.9728H100.489C98.9933 27.9728 98.9933 30.1749 100.489 30.1749H103.497V38.8646Z" fill="#FFFFFF"/>
<path d="M124.981 10.0442C122.214 10.0442 119.964 7.79194 119.964 5.02212C119.964 2.25229 122.214 0 124.981 0C127.749 0 129.999 2.25229 129.999 5.02212C130.001 7.79194 127.749 10.0442 124.981 10.0442ZM124.981 0.670671C122.583 0.670671 120.631 2.62196 120.631 5.02212C120.631 7.42227 122.583 9.37356 124.981 9.37356C127.379 9.37356 129.329 7.41963 129.329 5.02212C129.329 2.6246 127.379 0.670671 124.981 0.670671Z" fill="#FFFFFF"/>
<path d="M122.736 7.71532V1.7981H125.356C125.883 1.7981 126.282 1.8509 126.556 1.95652C126.83 2.06214 127.049 2.24961 127.213 2.51894C127.376 2.78826 127.458 3.08663 127.458 3.4114C127.458 3.83123 127.324 4.18505 127.052 4.47286C126.78 4.76067 126.361 4.94286 125.794 5.02207C125.999 5.12241 126.158 5.2201 126.266 5.3178C126.495 5.52903 126.712 5.79044 126.915 6.10465L127.944 7.71532H126.96L126.179 6.48487C125.949 6.12841 125.762 5.85909 125.614 5.66898C125.467 5.48151 125.335 5.34948 125.216 5.27291C125.1 5.19634 124.981 5.14617 124.86 5.11449C124.77 5.096 124.625 5.08544 124.424 5.08544H123.517V7.71268H122.736V7.71532ZM123.52 4.40949H125.2C125.556 4.40949 125.836 4.37252 126.039 4.29859C126.239 4.22466 126.392 4.10584 126.498 3.94477C126.604 3.78106 126.656 3.60416 126.656 3.41404C126.656 3.13416 126.553 2.90444 126.353 2.72489C126.15 2.54534 125.828 2.45556 125.39 2.45556H123.52V4.40949Z" fill="#FFFFFF"/>
<path fill-rule="evenodd" clip-rule="evenodd" d="M1.2783 33.6074C0.708467 33.6074 0.51061 33.6074 0.389258 33.618C0.267906 33.6259 0.225696 33.647 0.188763 33.6946C0.151829 33.7421 0.12281 33.8213 0.0911533 34.0299C0.0594962 34.2385 0.0252009 34.5817 0.00937237 34.9646C-0.00645619 35.3475 -0.00118 35.7699 0.0172867 36.137C0.0331152 36.504 0.0621343 36.8155 0.0990676 37.0479C0.136001 37.2829 0.17821 37.4413 0.244163 37.6103C0.310115 37.7793 0.402448 37.9615 0.494782 38.1173C0.589753 38.2757 0.687363 38.4077 0.766505 38.5107C0.845648 38.6137 0.906324 38.6876 0.951172 38.7246C0.99602 38.7616 1.0224 38.7616 1.06197 38.7404C1.10154 38.7167 1.15694 38.6718 1.53419 38.2863C1.91144 37.9008 2.61053 37.1799 3.28852 36.4617C3.96651 35.7435 4.62076 35.0306 4.96107 34.6504C5.30403 34.2702 5.33305 34.2226 5.34624 34.1646C5.35943 34.1065 5.35415 34.0352 5.33041 33.9586C5.30667 33.882 5.26709 33.7975 5.21169 33.7394C5.15629 33.6814 5.0877 33.6444 4.83708 33.6259C4.5891 33.6074 4.16173 33.6074 3.47847 33.6074C2.79256 33.6074 1.84812 33.6074 1.2783 33.6074Z" fill="#FFFFFF"/>
<path fill-rule="evenodd" clip-rule="evenodd" d="M32.3577 34.4921C32.3366 33.9138 32.297 33.8082 32.1598 33.7396C32.02 33.6709 31.78 33.6392 30.3897 33.6234C28.9994 33.6075 26.4589 33.6075 25.1399 33.663C23.8208 33.7158 23.7259 33.824 23.3644 34.7535C23.0004 35.6803 22.3699 37.4282 22.1008 38.3656C21.8317 39.303 21.9267 39.4323 22.0348 39.5142C22.143 39.596 22.2696 39.6304 23.586 39.6462C24.9025 39.6621 27.4113 39.6594 28.8622 39.6172C30.3132 39.5723 30.7115 39.4851 31.0413 39.332C31.3711 39.1789 31.6349 38.9623 31.8248 38.7485C32.0148 38.5346 32.1335 38.326 32.2152 38.0646C32.297 37.8032 32.3445 37.489 32.3656 36.8051C32.3841 36.1239 32.3814 35.0703 32.3577 34.4921Z" fill="#FFFFFF"/>
<path fill-rule="evenodd" clip-rule="evenodd" d="M2.24118 27.6216C0.626664 27.6216 0.56335 27.6216 0.513226 27.6348C0.463102 27.648 0.423531 27.6744 0.389236 27.7166C0.357579 27.7589 0.331198 27.817 0.312731 27.8909C0.294264 27.9648 0.278436 28.052 0.273159 28.6883C0.267883 29.3247 0.267883 30.5102 0.267883 31.1809C0.270521 31.8516 0.270521 32.0073 0.283712 32.1314C0.296902 32.2555 0.318007 32.3453 0.344388 32.414C0.370769 32.4826 0.402426 32.5249 0.444636 32.5513C0.486845 32.5777 0.542245 32.5856 1.57902 32.5909C2.61579 32.5962 4.63657 32.5962 5.77095 32.5592C6.90533 32.5222 7.15331 32.4483 7.4092 32.2767C7.6651 32.105 7.93419 31.8357 8.53303 31.2179C9.13188 30.6 10.0658 29.6362 10.5855 29.0976C11.1025 28.5589 11.2054 28.4507 11.2714 28.3715C11.3373 28.2923 11.369 28.2447 11.3848 28.1919C11.4006 28.1391 11.398 28.081 11.3848 28.0176C11.3716 27.9543 11.3452 27.8883 11.3162 27.8302C11.2872 27.7721 11.2529 27.7246 11.2213 27.6929C11.1896 27.6612 11.1606 27.6427 10.9865 27.6348C10.815 27.6269 10.4984 27.6269 8.75727 27.6269C7.01877 27.6216 3.85569 27.6216 2.24118 27.6216Z" fill="#FFFFFF"/>
<path fill-rule="evenodd" clip-rule="evenodd" d="M32.6083 28.6064C32.5951 27.9886 32.5688 27.8909 32.5345 27.8143C32.4975 27.7377 32.4527 27.6876 32.2443 27.6585C32.0385 27.6295 31.6692 27.6268 30.6509 27.6242C29.6326 27.6216 27.96 27.6216 27.0894 27.6453C26.2189 27.6691 26.145 27.714 25.8548 28.4454C25.562 29.1794 25.0502 30.6 24.7811 31.3842C24.5147 32.1684 24.4936 32.3189 24.5015 32.414C24.5094 32.509 24.5463 32.5486 24.7099 32.5697C24.8734 32.5909 25.161 32.5909 26.4088 32.5909C27.6566 32.5909 29.8647 32.5909 31.0255 32.5882C32.1862 32.5856 32.2997 32.5803 32.3788 32.546C32.4606 32.5117 32.5107 32.4483 32.545 32.377C32.5793 32.3083 32.5978 32.2318 32.6083 32.0865C32.6189 31.9387 32.6215 31.7195 32.6215 31.0409C32.6215 30.3623 32.6215 29.2243 32.6083 28.6064Z" fill="#FFFFFF"/>
<path fill-rule="evenodd" clip-rule="evenodd" d="M3.42308 22.3381C0.840387 22.3381 0.687378 22.3381 0.581854 22.3513C0.478968 22.3645 0.423568 22.3909 0.383997 22.4358C0.344425 22.4807 0.315406 22.5441 0.299578 22.6233C0.281111 22.7052 0.273197 22.8055 0.270559 23.3679C0.265283 23.9277 0.265283 24.9495 0.270559 25.4961C0.275835 26.0427 0.283749 26.1166 0.304854 26.1853C0.325959 26.2539 0.360254 26.3226 0.402463 26.3648C0.444673 26.4071 0.497435 26.4255 2.50502 26.4335C4.51525 26.4414 8.48031 26.4414 10.5222 26.4387C12.5641 26.4335 12.6828 26.4255 12.8068 26.378C12.9308 26.3278 13.0574 26.2381 13.3555 25.9529C13.6562 25.6677 14.1311 25.1872 14.5743 24.733C15.0175 24.2789 15.4264 23.8537 15.7087 23.5527C15.991 23.2517 16.1466 23.0748 16.2389 22.956C16.3313 22.8372 16.3577 22.7764 16.3656 22.7157C16.3708 22.6523 16.355 22.589 16.3339 22.5335C16.3128 22.4781 16.2864 22.4279 16.2337 22.3962C16.1809 22.3645 16.1018 22.3513 13.5586 22.3434C11.0155 22.3381 6.00578 22.3381 3.42308 22.3381Z" fill="#FFFFFF"/>
<path fill-rule="evenodd" clip-rule="evenodd" d="M32.6242 23.4075C32.6242 22.8689 32.6241 22.8055 32.6162 22.7421C32.6083 22.6788 32.5951 22.618 32.574 22.5679C32.5556 22.5177 32.5318 22.4754 32.5028 22.4385C32.4738 22.4015 32.4368 22.3698 32.0411 22.354C31.6481 22.3381 30.8962 22.3381 30.1681 22.3381C29.44 22.3381 28.733 22.3381 28.3636 22.3487C27.9943 22.3593 27.9574 22.3777 27.7094 23.0273C27.4588 23.6768 26.9945 24.9574 26.7702 25.6202C26.546 26.2829 26.5592 26.3331 26.5935 26.3674C26.6278 26.4018 26.6832 26.4255 27.4007 26.4361C28.1183 26.4467 29.498 26.4467 30.4108 26.4467C31.3209 26.4467 31.7589 26.4467 32.0121 26.4467C32.2654 26.4467 32.3313 26.444 32.3814 26.4282C32.4316 26.415 32.4685 26.3886 32.4975 26.3595C32.5265 26.3278 32.5476 26.2935 32.5661 26.2565C32.5819 26.2196 32.5951 26.1852 32.6057 26.1351C32.6162 26.0876 32.6215 26.0295 32.6242 25.4935C32.6242 24.9574 32.6242 23.9462 32.6242 23.4075Z" fill="#FFFFFF"/>
<path fill-rule="evenodd" clip-rule="evenodd" d="M3.73702 17.9603C0.552839 17.9603 0.473696 17.9603 0.41302 17.9788C0.352344 17.9972 0.307496 18.0369 0.275839 18.0817C0.244182 18.1266 0.225715 18.1768 0.212525 18.2402C0.199334 18.3035 0.194058 18.3801 0.19142 18.4672C0.188782 18.5544 0.188782 18.6547 0.188782 18.8343C0.188782 19.0138 0.188782 19.2726 0.188782 19.563C0.188782 19.8535 0.188782 20.1703 0.188782 20.4053C0.188782 20.6377 0.188782 20.7882 0.188782 20.9123C0.188782 21.0364 0.188782 21.1394 0.199334 21.2318C0.209886 21.3216 0.230991 21.4008 0.265286 21.4615C0.299582 21.5222 0.344429 21.5645 0.41302 21.5856C0.484248 21.6067 0.57922 21.6094 2.94031 21.6094C5.30405 21.6094 9.9339 21.6094 12.7118 21.6094C15.4897 21.6094 16.4183 21.6094 16.9512 21.5935C17.4868 21.5803 17.6266 21.5513 17.7427 21.4905C17.8587 21.4298 17.9484 21.3374 18.3441 20.9334C18.7372 20.5268 19.4337 19.8086 19.8742 19.3465C20.3148 18.8844 20.4995 18.6811 20.605 18.5517C20.7132 18.425 20.7422 18.3722 20.7501 18.3167C20.758 18.2587 20.7448 18.1979 20.7237 18.1478C20.7026 18.0976 20.6762 18.0633 20.6287 18.0316C20.5812 18.0025 20.5153 17.9814 20.3227 17.9682C20.1301 17.9576 19.8109 17.9576 16.5054 17.9576C13.2104 17.9603 6.9212 17.9603 3.73702 17.9603Z" fill="#FFFFFF"/>
<path fill-rule="evenodd" clip-rule="evenodd" d="M32.5476 18.9161C32.5476 18.462 32.5476 18.396 32.5371 18.3299C32.5265 18.2639 32.5107 18.1979 32.487 18.1451C32.4632 18.0923 32.4316 18.0501 32.3946 18.021C32.3577 17.992 32.3128 17.9761 32.0622 17.9656C31.8116 17.9576 31.3552 17.9576 30.9094 17.9576C30.4635 17.9576 30.0335 17.9576 29.7961 17.9761C29.5613 17.9946 29.5217 18.0316 29.3028 18.6019C29.0838 19.1722 28.6855 20.2733 28.4876 20.8542C28.2898 21.4351 28.2977 21.4905 28.3188 21.5302C28.3399 21.5698 28.3794 21.5882 28.9071 21.5988C29.4347 21.6094 30.4503 21.6094 31.0624 21.6094C31.6744 21.6094 31.8776 21.6094 32.0279 21.6041C32.1757 21.5988 32.2706 21.5909 32.3339 21.5671C32.3999 21.5434 32.4395 21.5011 32.4658 21.4615C32.4949 21.4193 32.5107 21.3796 32.5212 21.311C32.5318 21.2423 32.5397 21.1446 32.5424 20.6773C32.5476 20.2073 32.5476 19.3676 32.5476 18.9161Z" fill="#FFFFFF"/>
<path fill-rule="evenodd" clip-rule="evenodd" d="M4.47041 13.9547C0.45523 13.9574 0.41302 13.96 0.381363 13.9679C0.349705 13.9759 0.325963 13.9891 0.30222 14.0155C0.278477 14.0419 0.252096 14.0815 0.233629 14.1211C0.215163 14.1607 0.20461 14.2056 0.196696 14.3033C0.19142 14.401 0.188782 14.5568 0.188782 14.9053C0.188782 15.2538 0.188782 15.7978 0.188782 16.1463C0.188782 16.4922 0.188782 16.6427 0.196696 16.7457C0.20461 16.8487 0.217801 16.9068 0.236267 16.9516C0.254734 16.9965 0.275839 17.0309 0.30222 17.0546C0.328601 17.0784 0.354982 17.0969 0.42621 17.1048C0.497439 17.1153 0.613515 17.1153 4.06942 17.118C7.52796 17.118 14.329 17.118 17.8271 17.118C21.3252 17.118 21.5204 17.118 21.7077 17.0969C21.895 17.0731 22.0744 17.0282 22.2274 16.9464C22.3778 16.8619 22.4991 16.7404 22.8685 16.3602C23.2378 15.98 23.8578 15.3436 24.2086 14.9792C24.5621 14.6122 24.6492 14.5172 24.7046 14.4538C24.7626 14.3904 24.789 14.3614 24.8075 14.3297C24.8259 14.3006 24.8339 14.2716 24.8339 14.2426C24.8339 14.2135 24.8286 14.1845 24.8154 14.1528C24.7996 14.1211 24.7758 14.0841 24.7547 14.0551C24.7336 14.0287 24.7178 14.0128 24.694 13.997C24.6703 13.9811 24.6439 13.9679 24.6043 13.96C24.5648 13.9521 24.5146 13.9495 20.4942 13.9495C16.4764 13.9547 8.48822 13.9547 4.47041 13.9547Z" fill="#FFFFFF"/>
<path fill-rule="evenodd" clip-rule="evenodd" d="M31.6111 13.9547C31.4766 13.9547 31.2893 13.9547 31.1758 13.9679C31.0624 13.9811 31.0202 14.0075 30.9094 14.261C30.8012 14.5145 30.6245 14.995 30.4451 15.4862C30.2657 15.9773 30.081 16.479 29.9966 16.7483C29.9122 17.0203 29.9306 17.0599 29.9518 17.0863C29.9729 17.1127 30.0019 17.1232 30.3633 17.1285C30.7247 17.1338 31.4212 17.1338 31.8037 17.1338C32.1862 17.1312 32.2548 17.1285 32.3076 17.1153C32.3603 17.1021 32.3973 17.0784 32.4289 17.0467C32.4606 17.015 32.4843 16.9754 32.5028 16.9279C32.5213 16.8803 32.5318 16.8222 32.5371 16.7325C32.5424 16.64 32.5424 16.5133 32.5424 16.1489C32.5424 15.7819 32.5424 15.1746 32.5424 14.8208C32.5424 14.467 32.5397 14.364 32.5318 14.2874C32.5213 14.2082 32.5054 14.1554 32.4817 14.1131C32.4579 14.0683 32.4263 14.0339 32.392 14.0128C32.3577 13.9917 32.3208 13.9838 32.2416 13.9758C32.1598 13.9679 32.0358 13.9626 31.933 13.96C31.8327 13.9547 31.7483 13.9547 31.6111 13.9547Z" fill="#FFFFFF"/>
<path fill-rule="evenodd" clip-rule="evenodd" d="M10.6251 39.765C9.84948 39.765 9.50125 39.765 9.29284 39.7598C9.08443 39.7545 9.01848 39.7413 8.98683 39.7254C8.95253 39.7069 8.94989 39.6858 8.95517 39.6515C8.96044 39.6172 8.971 39.5723 12.7013 34.5264C16.4315 29.4805 23.8815 19.4363 27.6487 14.3561C31.4159 9.27589 31.5003 9.16499 31.5504 9.10162C31.6006 9.03825 31.619 9.02505 31.6375 9.01977C31.656 9.01449 31.6718 9.01449 31.7114 9.04881C31.7509 9.08314 31.8143 9.15179 31.8591 9.20196C31.9039 9.25213 31.933 9.28645 31.9488 9.30758C31.9646 9.3287 31.9673 9.33926 31.9673 9.34982C31.9673 9.36038 31.9673 9.37095 29.8146 13.057C27.6619 16.7431 23.3565 24.1072 20.4098 29.1426C17.4657 34.1779 15.8802 36.887 15.0597 38.2653C14.2393 39.6409 14.1812 39.6858 14.0995 39.7122C14.0177 39.7413 13.9121 39.7545 13.2579 39.7598C12.6037 39.765 11.4033 39.765 10.6251 39.765Z" fill="#FFFFFF"/>
<path fill-rule="evenodd" clip-rule="evenodd" d="M1.86922 8.16419C1.71093 8.18531 1.5632 8.2302 1.38381 8.3279C1.20442 8.42559 0.996008 8.57874 0.835084 8.71604C0.676798 8.85598 0.565998 8.98009 0.489494 9.08306C0.412989 9.18604 0.365503 9.27053 0.333846 9.33654C0.302189 9.4052 0.28636 9.458 0.275808 9.50553C0.265256 9.5557 0.262618 9.60323 0.270532 9.64812C0.275808 9.693 0.291637 9.73525 0.320656 9.77222C0.349675 9.80918 0.391884 9.84087 0.465751 9.85935C0.539618 9.87783 0.645141 9.88576 0.919503 9.8884C1.1965 9.89104 1.64234 9.89104 5.28819 9.89104C8.93403 9.89104 15.7825 9.89104 20.0378 9.89104C24.293 9.89104 25.9577 9.89104 26.976 9.89104C27.9943 9.89104 28.3636 9.89104 28.5878 9.88575C28.8121 9.88047 28.8939 9.86991 28.9809 9.84615C29.0653 9.82239 29.155 9.78806 29.25 9.73261C29.345 9.6798 29.4452 9.60587 29.6088 9.458C29.7723 9.3075 30.0019 9.08306 30.1892 8.89559C30.3765 8.70812 30.5242 8.55498 30.5981 8.47048C30.6719 8.38335 30.6772 8.36222 30.6772 8.3411C30.6772 8.31734 30.6746 8.29357 30.6614 8.27245C30.6482 8.25132 30.6297 8.23284 30.5928 8.21436C30.5559 8.19588 30.5005 8.17475 30.453 8.16155C30.4055 8.14835 30.3685 8.14571 30.2736 8.14307C30.1786 8.14307 30.0256 8.14307 25.3667 8.14307C20.7078 8.14307 11.5405 8.14307 6.87104 8.14307C2.19898 8.14307 2.0275 8.14307 1.86922 8.16419Z" fill="#FFFFFF"/>
<path fill-rule="evenodd" clip-rule="evenodd" d="M2.5868 10.6806C0.676816 10.6806 0.547549 10.6832 0.46313 10.6938C0.378711 10.7043 0.33914 10.7202 0.304844 10.7492C0.270549 10.7783 0.24153 10.8179 0.223063 10.8522C0.204597 10.8892 0.199321 10.9235 0.194044 11.2324C0.191406 11.5414 0.191406 12.1249 0.191406 12.4338C0.191406 12.7428 0.191406 12.7824 0.194044 12.814C0.196682 12.8457 0.199321 12.8695 0.204597 12.888C0.209873 12.9065 0.215149 12.917 0.220425 12.9329C0.225701 12.9461 0.236254 12.9619 0.246806 12.9751C0.257359 12.9883 0.270549 13.0042 0.286378 13.0174C0.302206 13.0306 0.318035 13.0411 0.333863 13.0517C0.349692 13.0622 0.36552 13.0675 0.383987 13.0728C0.402454 13.0781 0.42092 13.0834 0.455216 13.086C0.489511 13.0887 0.539635 13.0887 4.71838 13.0887C8.89976 13.0887 17.2124 13.0887 21.4281 13.0887C25.6437 13.0887 25.7651 13.0887 25.8785 13.0675C25.992 13.0464 26.1001 13.0042 26.2004 12.9381C26.3006 12.8721 26.3903 12.7771 26.6146 12.5474C26.8388 12.315 27.1976 11.948 27.4508 11.6892C27.7015 11.4305 27.8439 11.2852 27.9468 11.1849C28.047 11.0819 28.1051 11.0238 28.1394 10.9895C28.1737 10.9552 28.1816 10.9446 28.1869 10.9288C28.1921 10.9156 28.1948 10.8971 28.1921 10.8812C28.1895 10.8654 28.1816 10.8496 28.171 10.8311C28.1578 10.8126 28.1394 10.7941 28.1183 10.7756C28.0972 10.7571 28.0708 10.7413 28.047 10.7281C28.0207 10.7149 27.9943 10.7043 27.9679 10.6964C27.9389 10.6885 27.9099 10.6858 27.6751 10.6832C27.4403 10.6806 26.9971 10.6806 24.3326 10.6806C21.6655 10.6806 16.7771 10.6806 12.4849 10.6806C8.19011 10.6779 4.49678 10.6779 2.5868 10.6806Z" fill="#FFFFFF"/>
<path fill-rule="evenodd" clip-rule="evenodd" d="M32.3234 10.6884C32.297 10.6832 32.268 10.6805 32.2495 10.6832C32.2311 10.6858 32.2179 10.6911 32.21 10.7016C32.2021 10.7122 32.1941 10.7281 32.0596 11.103C31.9224 11.4779 31.656 12.212 31.5214 12.5948C31.3869 12.9803 31.3816 13.0147 31.3869 13.0384C31.3922 13.0622 31.408 13.0728 31.4634 13.0807C31.5188 13.086 31.6111 13.086 31.7483 13.086C31.8855 13.086 32.0702 13.086 32.1783 13.0833C32.2865 13.0807 32.3208 13.0754 32.3551 13.0648C32.3894 13.0516 32.421 13.0332 32.4474 13.0094C32.4738 12.9856 32.4975 12.9539 32.5134 12.9223C32.5292 12.8906 32.5371 12.8562 32.5424 12.5341C32.5477 12.2146 32.5477 11.6073 32.545 11.2825C32.5424 10.9578 32.5397 10.9182 32.5292 10.8786C32.5186 10.8416 32.5002 10.8099 32.4791 10.7835C32.458 10.7571 32.4289 10.7333 32.4026 10.7175C32.3762 10.7016 32.3498 10.6937 32.3234 10.6884Z" fill="#FFFFFF"/>
</svg>
