<?xml version="1.0" encoding="iso-8859-1"?>
<!-- Generator: Adobe Illustrator 19.0.0, SVG Export Plug-In . SVG Version: 6.00 Build 0)  -->
<svg version="1.1" id="Capa_1" xmlns="http://www.w3.org/2000/svg" xmlns:xlink="http://www.w3.org/1999/xlink" x="0px" y="0px"
	width="40px" height="40px" fill="#DA0000"
	 viewBox="0 0 512 512" style="enable-background:new 0 0 512 512;" xml:space="preserve">
<g>
	<g>
		<path d="M504.5,245.09c4.143,0,7.5-3.357,7.5-7.5V133.208c0-15.756-12.819-28.575-28.575-28.575
			c-14.146,0-25.919,10.336-28.178,23.851c-77.736-0.562-75.828,1.268-81.884-1.663c-6.291-3.044-17.591-9.754-29.49-17.51
			c-3.472-2.263-8.119-1.282-10.38,2.188c-2.262,3.471-1.282,8.117,2.188,10.38c27.233,17.751,35.146,21.606,44.959,21.606h74.209
			v145.358h-27.089c-1.031-6.552-4.01-12.565-8.401-17.3c-91.937-103.563-85.069-95.981-89.096-96.057
			c-46.112-0.857-72.159-29.164-72.402-29.433c-4.979-5.588-16.856-6.663-23.284-0.827l-37.588,34.193
			c-4.373,3.978-10.004,5.894-15.589,5.687c-16.357-0.605-22.91-16.078-14.245-25.43c21.661-23.385,26.699-28.815,27.566-29.748
			c-0.231,0.248-0.566,0.606,0.138-0.161c21.732-23.604,39.493-31.383,40.21-31.867c22.827-11.476,49.838-13.025,71.227,3.361
			c3.291,2.521,7.998,1.896,10.516-1.392c2.52-3.288,1.897-7.996-1.392-10.516c-22.301-17.085-53.16-20.858-84.433-6.144
			c-19.259-5.333-32.868-5.999-41.518-2.019c-24.711,11.37-52.75,40.929-62.462,45.628c-6.099,2.952-5.809,1.118-70.254,1.663
			c-2.259-13.515-14.031-23.851-28.178-23.851C12.819,104.632,0,117.452,0,133.208v23.33c0,4.143,3.358,7.5,7.5,7.5
			c4.143,0,7.5-3.357,7.5-7.5v-23.33c0-7.484,6.089-13.574,13.574-13.574c7.484,0,13.574,6.089,13.574,13.574
			c0,7.282,0,143.772,0,165.382c0,7.484-6.089,13.574-13.574,13.574c-7.484,0-13.574-6.089-13.574-13.574V194.209
			c0-4.143-3.357-7.5-7.5-7.5c-4.142,0-7.5,3.357-7.5,7.5V298.59c0,15.756,12.819,28.575,28.575,28.575
			c13.961,0,25.609-10.068,28.083-23.321h33.531c3.396,14.672,16.729,25.229,32.257,24.703
			c-2.774,19.717,12.822,37.127,32.769,36.451c-2.774,19.719,12.821,37.127,32.769,36.45c-4.213,29.946,31.288,47.868,53.072,28.286
			l16.001-14.385c20.312,16.983,52.399,4.266,54.126-23.312c20.242,5.701,39.958-8.314,41.815-28.778
			c22.512,5.436,43.475-13.124,40.574-36.237c15.078,0.698,28.659-8.799,33.104-23.177h28.667
			c2.474,13.254,14.122,23.321,28.083,23.321c15.756,0,28.575-12.819,28.575-28.575v-25.054c0-4.143-3.357-7.5-7.5-7.5
			c-4.143,0-7.5,3.357-7.5,7.5v25.054c0,7.484-6.089,13.574-13.574,13.574c-7.484,0-13.574-6.089-13.574-13.574
			c0-11.916,0-137.881,0-165.382c0-7.484,6.089-13.574,13.574-13.574c7.484,0,13.574,6.089,13.574,13.574v104.381
			C496.999,241.732,500.356,245.09,504.5,245.09z M105.114,291.593c0.924-3.031,2.669-5.689,4.866-7.665
			c19.619-17.631,21.25-20.063,26.614-21.49c16.722-4.542,29.296,16.15,15.848,29.058l-19.722,17.729
			C120.106,320.562,100.089,308.296,105.114,291.593z M141.472,344.397c-6.269-6.974-5.695-17.749,1.278-24.019
			c0.757-0.681-2.741,2.464,19.73-17.736c6.967-6.267,17.758-5.675,24.017,1.277h0.001c5.261,5.853,6.293,15.039-0.023,22.765
			c-1.093,1.209-0.176,0.239-20.986,18.99C158.515,351.944,147.738,351.369,141.472,344.397z M174.24,380.849
			c-6.269-6.974-5.695-17.749,1.278-24.019c20.746-18.585,21.886-20.826,28.395-21.871c5.993-0.968,11.709,1.357,15.352,5.412h0.001
			c6.235,6.932,5.73,17.715-1.277,24.018l-19.731,17.737C191.285,388.394,180.508,387.822,174.24,380.849z M251.795,399.807
			c-1.144,1.222,0.096-0.032-20.769,18.77c-6.973,6.268-17.748,5.695-24.017-1.277c-6.27-6.974-5.695-17.749,1.278-24.019
			c20.152-18.031,21.603-20.641,27.975-21.813c0.18,0.04,8.96-2.225,15.772,5.354h0.001
			C257.766,383.196,257.923,393.238,251.795,399.807z M384.89,308.903c-7.103-4.898-15.52,4.214-10.076,10.908
			c5.967,7.335,5.227,18.13-1.685,24.575c-6.892,6.427-17.697,6.427-24.595,0.002c-5.957-5.556-15.288,1.122-11.958,8.554
			c3.293,7.353,1.269,16.099-4.922,21.268c-7.343,6.129-18.368,5.279-25.1-1.938l-1.886-2.023c-2.685-2.88-7.14-3.193-10.205-0.718
			c-3.061,2.478-3.685,6.901-1.429,10.131c5.12,7.32,4.056,17.434-2.476,23.524c-6.582,6.136-16.567,6.403-23.443,1.021
			c12.649-21.65-3.964-48.926-28.763-48.039c2.718-19.459-12.739-37.041-32.814-36.413c2.764-19.668-12.814-37.076-32.76-36.45
			c1.319-9.527-1.591-18.846-7.893-25.863l-0.001-0.001c-11.732-13.073-31.979-14.297-45.202-2.404
			c-20.491,18.465-19.934,17.806-21.604,19.578c-3.882,4.108-6.489,9.028-7.776,14.23H57.149V143.485
			c60.835-0.922,65.265,2.225,76.392-3.161c12.672-6.131,39.288-34.963,62.198-45.503c1.732-0.797,6.215-1.975,16.3-0.461
			c-23.776,16.838-37.945,37.418-55.891,55.123c-17.637,19.044-3.948,50.79,26.253,50.634c9.12-0.046,17.895-3.43,24.682-9.602
			l37.194-33.836c0.932-0.551,2.067-0.543,2.991,0.01c16.759,17.654,46.508,32.259,79.411,33.691
			c88.747,99.251,81.906,91.568,82.881,92.802c2.652,3.545,3.526,12.605,3.517,12.505
			C411.795,309.666,396.001,316.559,384.89,308.903z"/>
	</g>
</g>
<g>
	<g>
		<path d="M194.72,129.929C194.871,129.768,194.975,129.655,194.72,129.929L194.72,129.929z"/>
	</g>
</g>
<g>
</g>
<g>
</g>
<g>
</g>
<g>
</g>
<g>
</g>
<g>
</g>
<g>
</g>
<g>
</g>
<g>
</g>
<g>
</g>
<g>
</g>
<g>
</g>
<g>
</g>
<g>
</g>
<g>
</g>
</svg>
