<svg id="_x31_px" enable-background="new 0 0 24 24" height="40px" viewBox="0 0 24 24" width="40px" fill="#DA0000" xmlns="http://www.w3.org/2000/svg"><path d="m18 24c-.066 0-.132-.013-.194-.039-.238-.101-5.806-2.507-5.806-7.425v-4.179c0-.215.137-.405.34-.474l5.5-1.857c.104-.035.217-.035.32 0l5.5 1.857c.203.068.34.259.34.474v4.179c0 4.918-5.568 7.324-5.806 7.425-.062.026-.128.039-.194.039zm-5-11.283v3.819c0 3.784 4.055 5.958 5 6.413.944-.456 5-2.639 5-6.413v-3.819l-5-1.689z"/><path d="m17.5 19c-.009 0-.019 0-.027-.001-.143-.008-.274-.075-.363-.187l-2-2.5c-.172-.216-.138-.53.078-.703.217-.17.53-.136.703.078l1.65 2.063 3.105-3.104c.195-.195.512-.195.707 0s.195.512 0 .707l-3.5 3.5c-.093.094-.221.147-.353.147z"/><path d="m18.5 8h-15c-1.93 0-3.5-1.57-3.5-3.5s1.57-3.5 3.5-3.5h15c1.93 0 3.5 1.57 3.5 3.5s-1.57 3.5-3.5 3.5zm-15-6c-1.379 0-2.5 1.121-2.5 2.5s1.121 2.5 2.5 2.5h15c1.379 0 2.5-1.121 2.5-2.5s-1.121-2.5-2.5-2.5z"/><path d="m4.5 6c-.827 0-1.5-.673-1.5-1.5s.673-1.5 1.5-1.5 1.5.673 1.5 1.5-.673 1.5-1.5 1.5zm0-2c-.275 0-.5.225-.5.5s.225.5.5.5.5-.225.5-.5-.225-.5-.5-.5z"/><path d="m9.5 6c-.827 0-1.5-.673-1.5-1.5s.673-1.5 1.5-1.5 1.5.673 1.5 1.5-.673 1.5-1.5 1.5zm0-2c-.275 0-.5.225-.5.5s.225.5.5.5.5-.225.5-.5-.225-.5-.5-.5z"/><path d="m9.5 14h-6c-1.93 0-3.5-1.57-3.5-3.5 0-.934.364-1.812 1.026-2.474s1.54-1.026 2.474-1.026h15c.782 0 1.519.251 2.128.726.218.17.257.484.087.702-.17.217-.484.256-.702.087-.432-.337-.955-.515-1.513-.515h-15c-.666 0-1.294.261-1.767.733s-.733 1.101-.733 1.767c0 1.379 1.121 2.5 2.5 2.5h6c.276 0 .5.224.5.5s-.224.5-.5.5z"/><path d="m4.5 12c-.827 0-1.5-.673-1.5-1.5s.673-1.5 1.5-1.5 1.5.673 1.5 1.5-.673 1.5-1.5 1.5zm0-2c-.275 0-.5.225-.5.5s.225.5.5.5.5-.225.5-.5-.225-.5-.5-.5z"/><path d="m9.5 12c-.827 0-1.5-.673-1.5-1.5s.673-1.5 1.5-1.5 1.5.673 1.5 1.5-.673 1.5-1.5 1.5zm0-2c-.275 0-.5.225-.5.5s.225.5.5.5.5-.225.5-.5-.225-.5-.5-.5z"/><path d="m9.5 20h-6c-1.93 0-3.5-1.57-3.5-3.5 0-.934.364-1.812 1.026-2.474s1.54-1.026 2.474-1.026h6c.276 0 .5.224.5.5s-.224.5-.5.5h-6c-.666 0-1.294.261-1.767.733s-.733 1.101-.733 1.767c0 1.379 1.121 2.5 2.5 2.5h6c.276 0 .5.224.5.5s-.224.5-.5.5z"/><path d="m4.5 18c-.827 0-1.5-.673-1.5-1.5s.673-1.5 1.5-1.5 1.5.673 1.5 1.5-.673 1.5-1.5 1.5zm0-2c-.275 0-.5.225-.5.5s.225.5.5.5.5-.225.5-.5-.225-.5-.5-.5z"/><path d="m9.5 18c-.827 0-1.5-.673-1.5-1.5s.673-1.5 1.5-1.5 1.5.673 1.5 1.5-.673 1.5-1.5 1.5zm0-2c-.275 0-.5.225-.5.5s.225.5.5.5.5-.225.5-.5-.225-.5-.5-.5z"/></svg>